<?xml version="1.0" encoding="UTF-8"?><svg id="Layer_2" xmlns="http://www.w3.org/2000/svg" viewBox="0 0 397.34 50.95"><g id="Layer_1-2"><polygon points="16.58 31.4 7.71 10.1 0 10.1 16.58 44.71 33.16 10.1 25.41 10.1 16.58 31.4" fill="#fff" stroke-width="0"/><rect x="38.2" y="10.1" width="6.77" height="32.7" fill="#fff" stroke-width="0"/><path d="M70.23,12.11c-2.57-1.34-5.57-2.01-8.99-2.01h-11.12v32.7h11.12c3.42,0,6.42-.67,8.99-2.01,2.57-1.34,4.57-3.23,6-5.68,1.43-2.44,2.15-5.33,2.15-8.66s-.72-6.22-2.15-8.66c-1.43-2.44-3.43-4.34-6-5.68ZM70.7,31.09c-.54,1.29-1.3,2.36-2.27,3.2s-2.09,1.46-3.36,1.85c-1.28.39-2.63.58-4.06.58h-4.06v-20.55h4.06c1.43,0,2.79.19,4.06.58,1.28.39,2.4,1,3.36,1.85s1.72,1.91,2.27,3.2c.55,1.29.82,2.84.82,4.65s-.27,3.36-.82,4.65Z" fill="#fff" stroke-width="0"/><polygon points="87.72 10.1 83.42 10.1 83.42 42.79 87.72 42.79 89.87 42.79 104.21 42.79 104.21 37.14 89.87 37.14 89.87 28.22 103.27 28.22 103.27 22.66 89.87 22.66 89.87 15.75 104.21 15.75 104.21 10.1 89.87 10.1 87.72 10.1" fill="#fff" stroke-width="0"/><path d="M141.59,19.6c-.86-2.07-2.07-3.87-3.64-5.39-1.57-1.53-3.4-2.7-5.49-3.53-2.09-.83-4.38-1.24-6.87-1.24s-4.74.41-6.84,1.24c-2.1.83-3.93,2-5.49,3.53s-2.77,3.32-3.64,5.39c-.87,2.07-1.31,4.35-1.31,6.84s.42,4.74,1.26,6.84c.84,2.1,2.04,3.93,3.6,5.49,1.56,1.56,3.39,2.76,5.49,3.62,2.1.86,4.41,1.28,6.94,1.28s4.83-.43,6.94-1.28c2.1-.86,3.92-2.06,5.46-3.62,1.54-1.56,2.74-3.39,3.6-5.49.86-2.1,1.28-4.38,1.28-6.84s-.43-4.77-1.28-6.84ZM134.49,32.01c-.86,1.62-2.05,2.9-3.57,3.83-1.53.93-3.3,1.4-5.32,1.4s-3.8-.47-5.33-1.4-2.72-2.21-3.6-3.83c-.87-1.62-1.31-3.47-1.31-5.56s.44-3.94,1.31-5.56,2.07-2.9,3.6-3.83,3.3-1.4,5.33-1.4,3.85.47,5.37,1.4,2.71,2.21,3.55,3.83,1.26,3.47,1.26,5.56-.43,3.94-1.28,5.56Z" fill="#fff" stroke-width="0"/><path d="M225.97,10.73v32.7h-6.77V10.73h6.77Z" fill="#fff" stroke-width="0"/><path d="M248.9,25.96h16.12c.09,2.49-.19,4.84-.86,7.05s-1.71,4.16-3.13,5.86c-1.42,1.7-3.17,3.03-5.25,3.99-2.09.97-4.47,1.45-7.15,1.45-2.52,0-4.85-.42-6.98-1.26-2.13-.84-3.99-2.02-5.56-3.55-1.57-1.52-2.79-3.35-3.64-5.46s-1.28-4.44-1.28-6.96.44-4.83,1.33-6.94c.89-2.1,2.13-3.9,3.71-5.39,1.59-1.49,3.46-2.65,5.61-3.46,2.15-.81,4.48-1.21,7.01-1.21,2.24,0,4.26.31,6.05.93,1.79.62,3.38,1.49,4.76,2.59,1.38,1.11,2.58,2.42,3.57,3.95l-5.7,3.32c-.81-1.43-1.94-2.59-3.39-3.48s-3.22-1.33-5.3-1.33c-1.96,0-3.75.44-5.37,1.33-1.62.89-2.9,2.16-3.85,3.81-.95,1.65-1.43,3.61-1.43,5.89s.47,4.21,1.4,5.91,2.2,3.01,3.81,3.95,3.42,1.4,5.44,1.4c1.34,0,2.54-.18,3.6-.54s1.97-.86,2.73-1.52c.76-.65,1.41-1.4,1.94-2.24.53-.84.93-1.76,1.21-2.76h-9.39v-5.32Z" fill="#fff" stroke-width="0"/><path d="M300.19,10.73v34.33l-23.26-21.91v20.27h-6.45V9.09l23.26,21.91V10.73h6.45Z" fill="#fff" stroke-width="0"/><path d="M311.99,10.73v32.7h-6.77V10.73h6.77Z" fill="#fff" stroke-width="0"/><path d="M317.03,10.73h24.29v6.03h-8.83v26.67h-6.68v-26.67h-8.78v-6.03Z" fill="#fff" stroke-width="0"/><polygon points="367.15 16.38 367.15 10.73 352.81 10.73 350.66 10.73 346.36 10.73 346.36 43.43 350.66 43.43 352.81 43.43 367.15 43.43 367.15 37.77 352.81 37.77 352.81 28.85 366.21 28.85 366.21 23.29 352.81 23.29 352.81 16.38 367.15 16.38" fill="#fff" stroke-width="0"/><path d="M389.45,43.43h7.89l-8.85-12.66c.45-.15.88-.32,1.28-.52,1.81-.87,3.19-2.09,4.16-3.67.97-1.57,1.45-3.39,1.45-5.44s-.48-3.91-1.45-5.46-2.35-2.77-4.16-3.64c-1.81-.87-4-1.31-6.59-1.31h-10.98v32.7h6.68v-11.86h2.91l7.64,11.86ZM378.89,16.43h3.88c1.18,0,2.2.19,3.06.58.86.39,1.52.95,1.99,1.68s.7,1.61.7,2.64-.23,1.91-.7,2.64c-.47.73-1.13,1.29-1.99,1.68-.86.39-1.88.58-3.06.58h-3.88v-9.81Z" fill="#fff" stroke-width="0"/><path d="M159.73,2.83v45.29c0,.5.14,1,.39,1.43.26.43.62.79,1.06,1.04.44.25.94.37,1.45.36.51-.01,1-.15,1.43-.42l36.93-22.65c.41-.25.76-.61.99-1.03.24-.42.36-.9.36-1.38s-.12-.96-.36-1.38c-.24-.42-.58-.78-.99-1.03L164.06.42c-.43-.26-.92-.41-1.43-.42-.51-.01-1.01.11-1.45.36-.44.25-.81.61-1.06,1.04-.26.44-.39.93-.39,1.43Z" fill="#fc0" stroke-width="0"/></g></svg>