<svg xmlns="http://www.w3.org/2000/svg" width="579" height="72" viewBox="0 0 579 72" fill="none"><path fill="#fff" d="M552.813 37.203h10.232l15.451 22.091h-11.453l-14.23-22.091Zm-10.775-25.344h9.691v47.435h-9.691V11.86Zm5.896 8.267V11.86h10.029c3.75 0 6.935.632 9.555 1.897 2.62 1.265 4.63 3.027 6.031 5.286 1.4 2.259 2.101 4.901 2.101 7.928 0 2.982-.701 5.625-2.101 7.929-1.401 2.259-3.411 4.02-6.031 5.285-2.62 1.265-5.805 1.898-9.555 1.898h-10.029v-7.725h9.419c1.717 0 3.185-.271 4.405-.813 1.265-.588 2.236-1.4 2.914-2.44.677-1.084 1.016-2.372 1.016-3.863 0-1.49-.339-2.755-1.016-3.794-.678-1.085-1.649-1.898-2.914-2.44-1.22-.587-2.688-.88-4.405-.88h-9.419ZM508.567 59.294v-8.2h23.921v8.2h-23.921Zm0-39.236v-8.2h23.921v8.2h-23.921Zm0 18.093v-8.064h22.565v8.064h-22.565Zm-6.235-26.292h9.352v47.435h-9.352V11.86ZM461.589 20.6V11.86h35.238V20.6h-12.808v38.693h-9.69V20.6h-12.74ZM446.281 11.859h9.826v47.435h-9.826V11.86ZM426.623 11.859h9.352v49.807l-33.747-31.782v29.41h-9.351V9.487l33.746 31.782v-29.41ZM361.586 41.675V33.95h23.378c.136 3.614-.293 7.025-1.287 10.233-.949 3.207-2.462 6.053-4.54 8.538-2.033 2.44-4.563 4.36-7.59 5.76-3.027 1.4-6.483 2.1-10.368 2.1-3.659 0-7.048-.61-10.165-1.829-3.072-1.22-5.76-2.937-8.064-5.15-2.259-2.214-4.02-4.857-5.285-7.929-1.22-3.072-1.83-6.437-1.83-10.096 0-3.66.632-7.003 1.897-10.03 1.311-3.072 3.118-5.692 5.422-7.86 2.304-2.169 5.014-3.84 8.131-5.015 3.118-1.175 6.506-1.762 10.165-1.762 3.253 0 6.167.452 8.742 1.355 2.62.904 4.924 2.169 6.912 3.795a23.267 23.267 0 0 1 5.218 5.693l-8.268 4.81c-1.174-2.077-2.823-3.749-4.947-5.014-2.078-1.31-4.63-1.965-7.657-1.965-2.846 0-5.444.655-7.793 1.965-2.349 1.265-4.224 3.095-5.624 5.49-1.356 2.393-2.033 5.24-2.033 8.538 0 3.252.677 6.12 2.033 8.606 1.355 2.44 3.185 4.337 5.489 5.692 2.349 1.355 4.992 2.033 7.928 2.033 1.943 0 3.682-.249 5.218-.746 1.536-.542 2.846-1.287 3.93-2.236a13.892 13.892 0 0 0 2.846-3.253 15.142 15.142 0 0 0 1.762-3.998h-13.62ZM318.494 11.859h9.826v47.435h-9.826V11.86ZM169.045 35.577c0 3.026.633 5.714 1.898 8.064 1.265 2.349 3.004 4.2 5.218 5.556 2.213 1.355 4.788 2.033 7.725 2.033 2.936 0 5.511-.677 7.725-2.033 2.214-1.355 3.93-3.207 5.15-5.556 1.265-2.35 1.898-5.038 1.898-8.064 0-3.027-.61-5.715-1.83-8.064-1.22-2.35-2.937-4.202-5.15-5.557-2.214-1.355-4.811-2.033-7.793-2.033-2.937 0-5.512.678-7.725 2.033-2.214 1.355-3.953 3.207-5.218 5.556-1.265 2.35-1.898 5.038-1.898 8.065Zm-10.232 0c0-3.615.632-6.912 1.897-9.894 1.265-3.027 3.027-5.647 5.286-7.86 2.259-2.215 4.902-3.909 7.928-5.083 3.072-1.22 6.393-1.83 9.962-1.83 3.614 0 6.934.61 9.961 1.83 3.027 1.174 5.67 2.868 7.929 5.082 2.304 2.214 4.066 4.834 5.285 7.86 1.265 2.983 1.898 6.28 1.898 9.895 0 3.568-.633 6.889-1.898 9.96-1.219 3.028-2.959 5.67-5.217 7.93-2.214 2.258-4.857 4.02-7.929 5.285-3.027 1.22-6.37 1.83-10.029 1.83s-7.025-.61-10.097-1.83c-3.027-1.265-5.67-3.027-7.929-5.286-2.258-2.258-3.998-4.901-5.217-7.928-1.22-3.072-1.83-6.393-1.83-9.961ZM128.052 59.294v-8.2h23.921v8.2h-23.921Zm0-39.236v-8.2h23.921v8.2h-23.921Zm0 18.093v-8.064h22.566v8.064h-22.566Zm-6.234-26.292h9.351v47.435h-9.351V11.86ZM73.31 11.859h9.894v47.435H73.31V11.86Zm16.128 47.435h-9.893v-8.81H89.1c2.078 0 4.043-.27 5.895-.813 1.852-.587 3.479-1.49 4.88-2.71 1.4-1.22 2.484-2.756 3.252-4.608.813-1.898 1.22-4.156 1.22-6.776s-.407-4.857-1.22-6.71c-.768-1.897-1.852-3.455-3.253-4.675-1.4-1.22-3.027-2.1-4.879-2.643-1.852-.587-3.817-.88-5.895-.88h-9.555v-8.81h9.893c4.97 0 9.307.971 13.011 2.914 3.75 1.942 6.664 4.698 8.742 8.267 2.078 3.524 3.117 7.703 3.117 12.537 0 4.833-1.039 9.035-3.117 12.604-2.078 3.524-4.992 6.257-8.742 8.2-3.704 1.942-8.041 2.913-13.01 2.913ZM53.259 11.859h9.826v47.435h-9.826V11.86ZM24.056 42.76l12.808-30.901h11.249L24.057 62.072 0 11.86h11.181l12.876 30.9Z"/><path fill="#FC0" d="M232.873 4.001v63.998c0 .712.188 1.41.543 2.025.356.613.867 1.12 1.481 1.467a3.918 3.918 0 0 0 4.001-.084l51.386-32a3.98 3.98 0 0 0 1.381-1.455 4.045 4.045 0 0 0 0-3.904 3.98 3.98 0 0 0-1.381-1.456L238.898.593a3.92 3.92 0 0 0-4.001-.084 3.976 3.976 0 0 0-1.481 1.468A4.046 4.046 0 0 0 232.873 4Z"/></svg>
