<svg width="24" height="24" viewBox="0 0 24 24" xmlns="http://www.w3.org/2000/svg"><g fill="none" fill-rule="evenodd"><rect stroke="#003B56" fill="#014969" x=".5" y=".5" width="23" height="23" rx="3"/><path d="M14.746 5.973a1.114 1.114 0 0 0-2.15-.576l-3.457 12.9a1.113 1.113 0 0 0 2.15.576l3.457-12.9zm1.825 3.93a1.114 1.114 0 0 0-2.15-.576l-1.729 6.45a1.113 1.113 0 0 0 2.15.577l1.729-6.45zm-5.375-1.44a1.114 1.114 0 0 0-2.15-.576l-1.729 6.45a1.113 1.113 0 0 0 2.15.576l1.729-6.45zm7.486 4.31a1.114 1.114 0 0 0-2.15-.575l-.576 2.15a1.113 1.113 0 0 0 2.15.576l.576-2.15zM8.04 9.923a1.113 1.113 0 0 0-2.15-.576l-.576 2.15a1.113 1.113 0 0 0 2.15.576l.576-2.15z" fill="#FC0"/></g></svg>
